<?xml version="1.0" encoding="UTF-8" standalone="no"?>
<svg width="200" height="200" viewBox="0 0 200 200" xmlns="http://www.w3.org/2000/svg">
  <style>
    .code-line {
      fill: none;
      stroke: #06d6a0;
      stroke-width: 1;
      stroke-opacity: 0.3;
    }
    .code-dot {
      fill: #06d6a0;
      fill-opacity: 0.4;
    }
    .code-bracket {
      fill: none;
      stroke: #06d6a0;
      stroke-width: 1.5;
      stroke-opacity: 0.3;
    }
  </style>
  
  <!-- Grid of dots representing binary -->
  <g>
    <circle class="code-dot" cx="20" cy="20" r="2" />
    <circle class="code-dot" cx="40" cy="20" r="2" />
    <circle class="code-dot" cx="60" cy="20" r="2" />
    <circle class="code-dot" cx="100" cy="20" r="2" />
    <circle class="code-dot" cx="120" cy="20" r="2" />
    <circle class="code-dot" cx="160" cy="20" r="2" />
    <circle class="code-dot" cx="180" cy="20" r="2" />
    
    <circle class="code-dot" cx="20" cy="40" r="2" />
    <circle class="code-dot" cx="60" cy="40" r="2" />
    <circle class="code-dot" cx="80" cy="40" r="2" />
    <circle class="code-dot" cx="120" cy="40" r="2" />
    <circle class="code-dot" cx="140" cy="40" r="2" />
    <circle class="code-dot" cx="180" cy="40" r="2" />
    
    <circle class="code-dot" cx="40" cy="60" r="2" />
    <circle class="code-dot" cx="80" cy="60" r="2" />
    <circle class="code-dot" cx="100" cy="60" r="2" />
    <circle class="code-dot" cx="140" cy="60" r="2" />
    <circle class="code-dot" cx="160" cy="60" r="2" />
    
    <circle class="code-dot" cx="20" cy="80" r="2" />
    <circle class="code-dot" cx="60" cy="80" r="2" />
    <circle class="code-dot" cx="100" cy="80" r="2" />
    <circle class="code-dot" cx="140" cy="80" r="2" />
    <circle class="code-dot" cx="180" cy="80" r="2" />
    
    <circle class="code-dot" cx="40" cy="100" r="2" />
    <circle class="code-dot" cx="80" cy="100" r="2" />
    <circle class="code-dot" cx="120" cy="100" r="2" />
    <circle class="code-dot" cx="160" cy="100" r="2" />
    
    <circle class="code-dot" cx="20" cy="120" r="2" />
    <circle class="code-dot" cx="60" cy="120" r="2" />
    <circle class="code-dot" cx="100" cy="120" r="2" />
    <circle class="code-dot" cx="140" cy="120" r="2" />
    <circle class="code-dot" cx="180" cy="120" r="2" />
    
    <circle class="code-dot" cx="40" cy="140" r="2" />
    <circle class="code-dot" cx="80" cy="140" r="2" />
    <circle class="code-dot" cx="120" cy="140" r="2" />
    <circle class="code-dot" cx="160" cy="140" r="2" />
    
    <circle class="code-dot" cx="20" cy="160" r="2" />
    <circle class="code-dot" cx="60" cy="160" r="2" />
    <circle class="code-dot" cx="100" cy="160" r="2" />
    <circle class="code-dot" cx="140" cy="160" r="2" />
    <circle class="code-dot" cx="180" cy="160" r="2" />
    
    <circle class="code-dot" cx="40" cy="180" r="2" />
    <circle class="code-dot" cx="80" cy="180" r="2" />
    <circle class="code-dot" cx="120" cy="180" r="2" />
    <circle class="code-dot" cx="160" cy="180" r="2" />
  </g>
  
  <!-- Code-like lines -->
  <g>
    <line class="code-line" x1="10" y1="30" x2="70" y2="30" />
    <line class="code-line" x1="90" y1="30" x2="130" y2="30" />
    <line class="code-line" x1="150" y1="30" x2="190" y2="30" />
    
    <line class="code-line" x1="30" y1="50" x2="50" y2="50" />
    <line class="code-line" x1="70" y1="50" x2="90" y2="50" />
    <line class="code-line" x1="110" y1="50" x2="130" y2="50" />
    <line class="code-line" x1="150" y1="50" x2="170" y2="50" />
    
    <line class="code-line" x1="10" y1="70" x2="30" y2="70" />
    <line class="code-line" x1="50" y1="70" x2="70" y2="70" />
    <line class="code-line" x1="90" y1="70" x2="110" y2="70" />
    <line class="code-line" x1="130" y1="70" x2="150" y2="70" />
    <line class="code-line" x1="170" y1="70" x2="190" y2="70" />
    
    <line class="code-line" x1="30" y1="90" x2="50" y2="90" />
    <line class="code-line" x1="70" y1="90" x2="90" y2="90" />
    <line class="code-line" x1="110" y1="90" x2="130" y2="90" />
    <line class="code-line" x1="150" y1="90" x2="170" y2="90" />
    
    <line class="code-line" x1="10" y1="110" x2="30" y2="110" />
    <line class="code-line" x1="50" y1="110" x2="70" y2="110" />
    <line class="code-line" x1="90" y1="110" x2="110" y2="110" />
    <line class="code-line" x1="130" y1="110" x2="150" y2="110" />
    <line class="code-line" x1="170" y1="110" x2="190" y2="110" />
    
    <line class="code-line" x1="30" y1="130" x2="50" y2="130" />
    <line class="code-line" x1="70" y1="130" x2="90" y2="130" />
    <line class="code-line" x1="110" y1="130" x2="130" y2="130" />
    <line class="code-line" x1="150" y1="130" x2="170" y2="130" />
    
    <line class="code-line" x1="10" y1="150" x2="30" y2="150" />
    <line class="code-line" x1="50" y1="150" x2="70" y2="150" />
    <line class="code-line" x1="90" y1="150" x2="110" y2="150" />
    <line class="code-line" x1="130" y1="150" x2="150" y2="150" />
    <line class="code-line" x1="170" y1="150" x2="190" y2="150" />
    
    <line class="code-line" x1="30" y1="170" x2="50" y2="170" />
    <line class="code-line" x1="70" y1="170" x2="90" y2="170" />
    <line class="code-line" x1="110" y1="170" x2="130" y2="170" />
    <line class="code-line" x1="150" y1="170" x2="170" y2="170" />
  </g>
  
  <!-- Code brackets -->
  <g>
    <path class="code-bracket" d="M15,45 L5,45 L5,95 L15,95" />
    <path class="code-bracket" d="M65,75 L55,75 L55,125 L65,125" />
    <path class="code-bracket" d="M135,45 L125,45 L125,95 L135,95" />
    
    <path class="code-bracket" d="M185,45 L195,45 L195,95 L185,95" />
    <path class="code-bracket" d="M135,105 L145,105 L145,155 L135,155" />
    <path class="code-bracket" d="M65,135 L75,135 L75,185 L65,185" />
  </g>
</svg>