<?xml version="1.0" encoding="UTF-8"?>
<svg width="100" height="100" viewBox="0 0 100 100" xmlns="http://www.w3.org/2000/svg">
  <defs>
    <pattern id="african" x="0" y="0" width="50" height="50" patternUnits="userSpaceOnUse">
      <!-- Triangular patterns -->
      <path d="M0,0 L25,43.3 L50,0 Z" fill="none" stroke="#964B00" stroke-width="1"/>
      <path d="M25,43.3 L50,0 L75,43.3 Z" fill="none" stroke="#964B00" stroke-width="1"/>
      <path d="M25,43.3 L75,43.3 L50,86.6 Z" fill="none" stroke="#964B00" stroke-width="1"/>
      <path d="M0,0 L25,43.3 L0,86.6 Z" fill="none" stroke="#964B00" stroke-width="1"/>
      
      <!-- Center decorations -->
      <circle cx="25" cy="21.65" r="5" fill="none" stroke="#964B00" stroke-width="0.7"/>
      <circle cx="50" cy="43.3" r="5" fill="none" stroke="#964B00" stroke-width="0.7"/>
      <circle cx="37.5" cy="64.95" r="5" fill="none" stroke="#964B00" stroke-width="0.7"/>
      
      <!-- Additional adinkra-inspired symbols -->
      <path d="M25,21.65 L21,17.65 M25,21.65 L29,17.65 M25,21.65 L25,16.65 M25,21.65 L25,26.65" stroke="#964B00" stroke-width="0.7"/>
      <path d="M50,43.3 L46,39.3 M50,43.3 L54,39.3 M50,43.3 L50,38.3 M50,43.3 L50,48.3" stroke="#964B00" stroke-width="0.7"/>
      <path d="M37.5,64.95 L33.5,60.95 M37.5,64.95 L41.5,60.95 M37.5,64.95 L37.5,59.95 M37.5,64.95 L37.5,69.95" stroke="#964B00" stroke-width="0.7"/>
    </pattern>
  </defs>
  
  <rect width="100%" height="100%" fill="url(#african)"/>
</svg>