<?xml version="1.0" encoding="UTF-8"?>
<svg width="400" height="300" viewBox="0 0 400 300" fill="none" xmlns="http://www.w3.org/2000/svg">
  <rect width="400" height="300" fill="#1A2C2A"/>
  
  <!-- Sky gradient -->
  <rect width="400" height="130" fill="#1A2C2A"/>
  <rect x="0" y="130" width="400" height="170" fill="#25483F"/>
  
  <!-- African village huts -->
  <path d="M80 280L80 230L120 180L160 230L160 280H80Z" fill="#513B2A"/>
  <ellipse cx="120" cy="180" rx="40" ry="10" fill="#5E4535"/>
  <rect x="100" y="250" width="40" height="30" fill="#25483F"/>
  <ellipse cx="120" cy="250" rx="20" ry="10" fill="#25483F"/>
  
  <path d="M240 280L240 230L280 180L320 230L320 280H240Z" fill="#513B2A"/>
  <ellipse cx="280" cy="180" rx="40" ry="10" fill="#5E4535"/>
  <rect x="260" y="250" width="40" height="30" fill="#25483F"/>
  <ellipse cx="280" cy="250" rx="20" ry="10" fill="#25483F"/>
  
  <!-- Central community space/baobab tree -->
  <ellipse cx="200" cy="270" rx="60" ry="10" fill="#25483F"/>
  <path d="M190 270L190 200L170 160L200 140L230 160L210 200L210 270H190Z" fill="#513B2A"/>
  <ellipse cx="200" cy="140" rx="30" ry="20" fill="#25483F"/>
  <ellipse cx="180" cy="160" rx="20" ry="10" fill="#25483F"/>
  <ellipse cx="220" cy="160" rx="20" ry="10" fill="#25483F"/>
  
  <!-- People sitting in circle (simplified) -->
  <circle cx="180" cy="260" r="5" fill="#1A2C2A"/>
  <circle cx="220" cy="260" r="5" fill="#1A2C2A"/>
  <circle cx="160" cy="250" r="5" fill="#1A2C2A"/>
  <circle cx="240" cy="250" r="5" fill="#1A2C2A"/>
  
  <!-- Bitcoin symbols integrated with African patterns -->
  <circle cx="120" cy="210" r="10" fill="#1A2C2A"/>
  <path d="M124 205C127 206 127 213 124 214C128 215 128 222 124 223L124 225L116 225L116 223C114 223 112 223 110 222L110 216L116 216L116 211L110 211L110 204L116 204L116 202L124 202L124 204Z" fill="#EE720B" opacity="0.8" transform="scale(0.5) translate(192, 370)"/>
  
  <circle cx="280" cy="210" r="10" fill="#1A2C2A"/>
  <path d="M124 205C127 206 127 213 124 214C128 215 128 222 124 223L124 225L116 225L116 223C114 223 112 223 110 222L110 216L116 216L116 211L110 211L110 204L116 204L116 202L124 202L124 204Z" fill="#EE720B" opacity="0.8" transform="scale(0.5) translate(512, 370)"/>
  
  <!-- Ubuntu pattern - Concentric circles symbolizing community -->
  <circle cx="200" cy="120" r="40" stroke="#FFC567" stroke-width="1" opacity="0.5" fill="none"/>
  <circle cx="200" cy="120" r="30" stroke="#FFC567" stroke-width="1" opacity="0.6" fill="none"/>
  <circle cx="200" cy="120" r="20" stroke="#FFC567" stroke-width="1" opacity="0.7" fill="none"/>
  
  <!-- Connecting lines representing Ubuntu philosophy -->
  <line x1="160" y1="120" x2="240" y2="120" stroke="#FFC567" stroke-width="1" opacity="0.6"/>
  <line x1="200" y1="80" x2="200" y2="160" stroke="#FFC567" stroke-width="1" opacity="0.6"/>
  <line x1="172" y1="92" x2="228" y2="148" stroke="#FFC567" stroke-width="1" opacity="0.4"/>
  <line x1="172" y1="148" x2="228" y2="92" stroke="#FFC567" stroke-width="1" opacity="0.4"/>
  
  <!-- Title -->
  <rect x="100" y="30" width="200" height="60" rx="10" fill="#1A2C2A" fill-opacity="0.7"/>
  <text x="200" y="60" font-family="sans-serif" font-size="20" fill="#FFC567" text-anchor="middle" font-weight="bold">THE UBUNTU</text>
  <text x="200" y="85" font-family="sans-serif" font-size="24" fill="#FFC567" text-anchor="middle" font-weight="bold">VILLAGE</text>
  
  <!-- Module number -->
  <rect x="140" y="260" width="120" height="30" rx="5" fill="#1A2C2A" fill-opacity="0.8"/>
  <text x="200" y="280" font-family="sans-serif" font-size="16" fill="#FBF4D2" text-anchor="middle">Module 7</text>
</svg>