<?xml version="1.0" encoding="UTF-8"?>
<svg width="400" height="300" viewBox="0 0 400 300" fill="none" xmlns="http://www.w3.org/2000/svg">
  <rect width="400" height="300" fill="#1A2C2A"/>
  
  <!-- Sky -->
  <rect width="400" height="150" fill="#1A2C2A"/>
  <rect x="0" y="150" width="400" height="150" fill="#25483F"/>
  
  <!-- Citadel foundation -->
  <rect x="120" y="150" width="160" height="130" fill="#513B2A"/>
  
  <!-- Central tower -->
  <rect x="180" y="80" width="40" height="200" fill="#5E4535"/>
  <!-- Tower roof -->
  <path d="M170 80L200 40L230 80H170Z" fill="#513B2A"/>
  
  <!-- Left tower -->
  <rect x="130" y="100" width="30" height="180" fill="#5E4535"/>
  <!-- Left tower roof -->
  <path d="M120 100L145 70L170 100H120Z" fill="#513B2A"/>
  
  <!-- Right tower -->
  <rect x="240" y="100" width="30" height="180" fill="#5E4535"/>
  <!-- Right tower roof -->
  <path d="M230 100L255 70L280 100H230Z" fill="#513B2A"/>
  
  <!-- Windows -->
  <rect x="190" y="100" width="20" height="30" rx="5" fill="#FFC567" opacity="0.3"/>
  <rect x="190" y="150" width="20" height="30" rx="5" fill="#FFC567" opacity="0.3"/>
  <rect x="190" y="200" width="20" height="30" rx="5" fill="#FFC567" opacity="0.3"/>
  
  <!-- Left tower windows -->
  <rect x="135" y="120" width="20" height="20" rx="5" fill="#FFC567" opacity="0.3"/>
  <rect x="135" y="160" width="20" height="20" rx="5" fill="#FFC567" opacity="0.3"/>
  <rect x="135" y="200" width="20" height="20" rx="5" fill="#FFC567" opacity="0.3"/>
  
  <!-- Right tower windows -->
  <rect x="245" y="120" width="20" height="20" rx="5" fill="#FFC567" opacity="0.3"/>
  <rect x="245" y="160" width="20" height="20" rx="5" fill="#FFC567" opacity="0.3"/>
  <rect x="245" y="200" width="20" height="20" rx="5" fill="#FFC567" opacity="0.3"/>
  
  <!-- Door -->
  <rect x="190" y="240" width="20" height="40" rx="5" fill="#5E4535"/>
  <rect x="195" y="240" width="10" height="25" rx="2" fill="#FFC567" opacity="0.2"/>
  
  <!-- Central Bank logo -->
  <circle cx="200" cy="60" r="15" fill="#EE720B" opacity="0.8"/>
  <text x="200" y="65" font-family="sans-serif" font-size="16" fill="#FBF4D2" text-anchor="middle" font-weight="bold">$</text>
  
  <!-- Money swirls -->
  <path d="M50 150C70 140 90 160 110 150" stroke="#FFC567" stroke-width="1" opacity="0.5" fill="none"/>
  <path d="M290 150C310 140 330 160 350 150" stroke="#FFC567" stroke-width="1" opacity="0.5" fill="none"/>
  
  <path d="M60 170C80 160 100 180 120 170" stroke="#FFC567" stroke-width="1" opacity="0.5" fill="none"/>
  <path d="M280 170C300 160 320 180 340 170" stroke="#FFC567" stroke-width="1" opacity="0.5" fill="none"/>
  
  <path d="M70 190C90 180 110 200 130 190" stroke="#FFC567" stroke-width="1" opacity="0.5" fill="none"/>
  <path d="M270 190C290 180 310 200 330 190" stroke="#FFC567" stroke-width="1" opacity="0.5" fill="none"/>
  
  <!-- Title -->
  <rect x="90" y="10" width="220" height="60" rx="10" fill="#1A2C2A" fill-opacity="0.7"/>
  <text x="200" y="40" font-family="sans-serif" font-size="20" fill="#FFC567" text-anchor="middle" font-weight="bold">THE CENTRAL</text>
  <text x="200" y="65" font-family="sans-serif" font-size="24" fill="#FFC567" text-anchor="middle" font-weight="bold">CITADEL</text>
  
  <!-- Module number -->
  <rect x="140" y="260" width="120" height="30" rx="5" fill="#1A2C2A" fill-opacity="0.8"/>
  <text x="200" y="280" font-family="sans-serif" font-size="16" fill="#FBF4D2" text-anchor="middle">Module 6</text>
</svg>