<?xml version="1.0" encoding="UTF-8"?>
<svg width="400" height="300" viewBox="0 0 400 300" fill="none" xmlns="http://www.w3.org/2000/svg">
  <rect width="400" height="300" fill="#1A2C2A"/>
  
  <!-- Sunrise/Sunset on horizon -->
  <rect x="0" y="150" width="400" height="150" fill="#25483F"/>
  <circle cx="200" cy="150" r="60" fill="#EE720B" opacity="0.3"/>
  <circle cx="200" cy="150" r="40" fill="#EE720B" opacity="0.5"/>
  
  <!-- Grove of trees silhouettes -->
  <path d="M50 280L70 200L90 280H50Z" fill="#1B3B36"/>
  <path d="M150 280L170 180L190 280H150Z" fill="#1B3B36"/>
  <path d="M250 280L270 190L290 280H250Z" fill="#1B3B36"/>
  <path d="M350 280L370 210L390 280H350Z" fill="#1B3B36"/>
  
  <path d="M100 280L120 220L140 280H100Z" fill="#25483F"/>
  <path d="M200 280L220 210L240 280H200Z" fill="#25483F"/>
  <path d="M300 280L320 230L340 280H300Z" fill="#25483F"/>
  
  <!-- Path through the grove -->
  <path d="M180 300C180 250 220 250 220 300" fill="#513B2A"/>
  
  <!-- Spiritual symbols floating in the air -->
  <circle cx="100" cy="150" r="10" fill="none" stroke="#FFC567" stroke-width="1" opacity="0.6"/>
  <path d="M95 145L105 155M95 155L105 145" stroke="#FFC567" stroke-width="1" opacity="0.6"/>
  
  <circle cx="300" cy="130" r="10" fill="none" stroke="#FFC567" stroke-width="1" opacity="0.6"/>
  <path d="M295 125L305 135M295 135L305 125" stroke="#FFC567" stroke-width="1" opacity="0.6"/>
  
  <circle cx="200" cy="100" r="10" fill="none" stroke="#FFC567" stroke-width="1" opacity="0.6"/>
  <path d="M195 95L205 105M195 105L205 95" stroke="#FFC567" stroke-width="1" opacity="0.6"/>
  
  <circle cx="150" cy="120" r="5" fill="#FFC567" opacity="0.4"/>
  <circle cx="250" cy="110" r="5" fill="#FFC567" opacity="0.4"/>
  <circle cx="180" cy="90" r="3" fill="#FFC567" opacity="0.4"/>
  <circle cx="220" cy="80" r="3" fill="#FFC567" opacity="0.4"/>
  
  <!-- Title -->
  <rect x="110" y="40" width="180" height="60" rx="10" fill="#1A2C2A" fill-opacity="0.7"/>
  <text x="200" y="70" font-family="sans-serif" font-size="24" fill="#FFC567" text-anchor="middle" font-weight="bold">THE GROVE</text>
  <text x="200" y="95" font-family="sans-serif" font-size="28" fill="#FFC567" text-anchor="middle" font-weight="bold">OF BECOMING</text>
  
  <!-- Module number -->
  <rect x="140" y="260" width="120" height="30" rx="5" fill="#1A2C2A" fill-opacity="0.8"/>
  <text x="200" y="280" font-family="sans-serif" font-size="16" fill="#FBF4D2" text-anchor="middle">Journey's End</text>
</svg>