<?xml version="1.0" encoding="UTF-8" standalone="no"?>
<svg width="200" height="200" viewBox="0 0 200 200" xmlns="http://www.w3.org/2000/svg">
  <defs>
    <pattern id="adinkra-pattern" patternUnits="userSpaceOnUse" width="50" height="50">
      <!-- Background -->
      <rect width="50" height="50" fill="#FBF4D2" opacity="0.1"/>
      
      <!-- Adinkra symbol 1: Sankofa (looking back to move forward) -->
      <path d="M10,25 C10,15 20,15 25,20 C30,25 20,35 10,25 Z" fill="none" stroke="#B34700" stroke-width="0.75" opacity="0.2"/>
      <circle cx="15" cy="25" r="2" fill="#B34700" opacity="0.2"/>
      
      <!-- Adinkra symbol 2: Dwennimmen (ram's horns - humility and strength) -->
      <path d="M35,10 C40,15 40,20 35,25 C30,20 30,15 35,10 Z" fill="none" stroke="#EE720B" stroke-width="0.75" opacity="0.2"/>
      
      <!-- Adinkra symbol 3: Nyame Nti (by God's grace) -->
      <path d="M25,35 C30,30 35,35 35,40 C35,45 30,45 25,40 C20,45 15,45 15,40 C15,35 20,30 25,35 Z" fill="none" stroke="#FFC567" stroke-width="0.75" opacity="0.2"/>
      
      <!-- Gold dust speckles -->
      <circle cx="5" cy="5" r="0.5" fill="#FFC567" opacity="0.3"/>
      <circle cx="45" cy="5" r="0.5" fill="#FFC567" opacity="0.3"/>
      <circle cx="5" cy="45" r="0.5" fill="#FFC567" opacity="0.3"/>
      <circle cx="45" cy="45" r="0.5" fill="#FFC567" opacity="0.3"/>
      <circle cx="25" cy="25" r="0.5" fill="#FFC567" opacity="0.3"/>
    </pattern>
  </defs>
  <rect width="100%" height="100%" fill="url(#adinkra-pattern)" />
</svg>