<?xml version="1.0" encoding="UTF-8" standalone="no"?>
<svg width="200" height="200" viewBox="0 0 200 200" xmlns="http://www.w3.org/2000/svg">
  <defs>
    <pattern id="cowrie-pattern" patternUnits="userSpaceOnUse" width="50" height="50">
      <!-- Background -->
      <rect width="50" height="50" fill="transparent"/>
      
      <!-- Cowrie shell simplified outline -->
      <path d="M20,15 C15,15 12,18 12,22 C12,26 14,29 20,30 C26,29 28,26 28,22 C28,18 25,15 20,15 Z" 
            fill="none" stroke="#FFF5E0" stroke-width="0.5" opacity="0.15"/>
      <path d="M20,18 C17,18 15,20 15,22 C15,24 17,27 20,27 C23,27 25,24 25,22 C25,20 23,18 20,18 Z" 
            fill="none" stroke="#FFF5E0" stroke-width="0.25" opacity="0.1"/>
            
      <!-- Cowrie shell at offset position -->
      <path d="M35,35 C30,35 27,38 27,42 C27,46 29,49 35,50 C41,49 43,46 43,42 C43,38 40,35 35,35 Z" 
            fill="none" stroke="#FFF5E0" stroke-width="0.5" opacity="0.15"/>
      <path d="M35,38 C32,38 30,40 30,42 C30,44 32,47 35,47 C38,47 40,44 40,42 C40,40 38,38 35,38 Z" 
            fill="none" stroke="#FFF5E0" stroke-width="0.25" opacity="0.1"/>
      
      <!-- Gold dust speckles -->
      <circle cx="5" cy="5" r="0.5" fill="#FFC567" opacity="0.2"/>
      <circle cx="10" cy="40" r="0.25" fill="#FFC567" opacity="0.2"/>
      <circle cx="45" cy="15" r="0.3" fill="#FFC567" opacity="0.2"/>
      <circle cx="30" cy="10" r="0.2" fill="#FFC567" opacity="0.2"/>
    </pattern>
  </defs>
  <rect width="100%" height="100%" fill="url(#cowrie-pattern)" />
</svg>